<?xml version="1.0" standalone="no"?>
<!DOCTYPE svg PUBLIC "-//W3C//DTD SVG 20010904//EN"
 "http://www.w3.org/TR/2001/REC-SVG-20010904/DTD/svg10.dtd">
<svg version="1.0" xmlns="http://www.w3.org/2000/svg"
 width="1000.000000pt" height="1000.000000pt" viewBox="0 0 1000.000000 1000.000000"
 preserveAspectRatio="xMidYMid meet">

<g transform="translate(0.000000,1000.000000) scale(0.100000,-0.100000)"
fill="#000000" stroke="none">
<path d="M0 5000 l0 -5000 5000 0 5000 0 0 5000 0 5000 -5000 0 -5000 0 0
-5000z m4177 3410 c4 -16 9 -18 24 -9 11 5 43 9 71 7 l52 -3 88 -270 c48 -148
90 -281 93 -295 5 -23 -6 -31 -147 -112 l-153 -87 -173 -17 c-95 -9 -174 -15
-175 -13 -4 5 -187 575 -187 582 0 4 21 21 47 39 45 30 53 32 133 32 53 -1
101 -7 128 -17 l42 -16 0 37 c0 52 27 97 80 132 53 35 70 37 77 10z m1267 -27
c32 -17 128 -108 144 -138 10 -19 12 -19 45 13 39 38 88 54 137 46 67 -11 72
-14 66 -40 -5 -19 -2 -24 11 -24 10 0 37 -17 60 -38 l42 -37 -105 -284 c-57
-156 -105 -286 -107 -287 -1 -2 -80 8 -176 21 l-173 25 -131 81 c-73 45 -139
88 -148 96 -15 12 -6 40 85 291 56 152 105 283 109 290 10 16 98 6 141 -15z
m1261 -419 c17 -4 43 -18 58 -33 34 -31 97 -132 97 -154 0 -13 8 -11 43 8 50
29 77 31 141 9 37 -13 46 -20 41 -34 -4 -12 7 -32 35 -62 22 -23 38 -48 36
-55 -4 -10 -251 -402 -280 -444 -10 -15 -26 -11 -161 37 l-150 55 -107 107
c-60 59 -108 110 -108 114 0 7 82 138 264 426 19 30 32 42 44 38 9 -3 31 -8
47 -12z m-3823 -623 l227 -163 -25 -57 c-14 -31 -46 -105 -72 -165 l-47 -108
-132 -119 c-72 -65 -136 -119 -142 -119 -22 0 -511 362 -510 378 2 83 114 188
240 226 15 4 14 10 -7 52 -13 26 -24 55 -24 65 0 25 29 111 46 133 13 18 15
19 33 2 18 -17 19 -17 25 2 4 11 28 34 53 50 l46 30 32 -21 c17 -12 133 -96
257 -186z m1771 103 c29 -14 66 -39 83 -55 l31 -30 40 41 c37 36 45 40 92 40
44 0 51 -3 51 -20 0 -11 7 -20 15 -20 31 0 85 -34 85 -53 0 -18 -63 -400 -75
-453 -4 -20 -13 -22 -142 -28 l-138 -7 -132 52 c-113 44 -133 56 -133 74 0 18
59 365 76 447 4 21 12 28 37 31 18 2 38 5 45 5 7 1 36 -10 65 -24z m-853 -303
c0 -6 12 -6 32 0 18 5 37 9 41 9 4 0 24 -34 43 -75 19 -41 49 -108 68 -149
l34 -75 -74 -56 c-64 -48 -85 -58 -165 -76 -49 -12 -92 -19 -94 -18 -2 2 -33
69 -69 148 -65 142 -66 145 -48 164 24 23 83 37 128 30 32 -5 34 -4 34 23 0
17 11 39 27 56 27 29 43 35 43 19z m1928 -85 c15 -8 40 -28 56 -45 l30 -31 25
24 c33 31 126 42 116 14 -3 -8 13 -21 36 -32 29 -13 39 -23 34 -34 -3 -9 -24
-90 -47 -180 l-41 -164 -106 4 c-103 4 -109 5 -198 51 -51 26 -93 53 -93 60 0
11 75 307 85 335 6 16 70 15 103 -2z m2196 -189 c33 -44 49 -118 38 -179 l-9
-48 36 0 c46 -1 74 -17 106 -60 21 -28 23 -37 12 -44 -10 -7 -11 -19 -3 -57 6
-31 6 -53 0 -58 -5 -6 -102 -52 -216 -104 l-208 -95 -81 110 -81 110 -28 132
c-16 72 -26 132 -22 134 4 1 99 45 212 96 113 52 208 95 212 95 4 1 18 -14 32
-32z m-1097 -84 c13 -15 33 -47 44 -71 17 -36 23 -41 39 -32 39 21 137 2 127
-24 -3 -6 8 -27 24 -45 15 -19 25 -39 21 -46 -39 -64 -217 -295 -227 -295 -7
0 -56 20 -107 44 -81 38 -101 53 -160 119 -38 42 -68 79 -68 82 0 4 48 74 108
156 107 149 107 150 141 145 21 -3 44 -16 58 -33z m-2707 -340 l42 -78 -39
-32 c-46 -40 -122 -67 -139 -49 -24 24 -76 136 -71 150 4 9 24 19 46 22 31 5
41 11 43 28 3 19 15 25 70 35 3 0 25 -34 48 -76z m1413 -13 c16 -13 28 -16 32
-10 9 15 33 12 53 -7 18 -17 17 -20 -5 -89 l-24 -70 -47 6 c-26 3 -60 15 -77
25 -16 10 -31 20 -33 21 -3 2 37 124 45 136 8 14 29 9 56 -12z m691 -2 c9 -12
16 -37 16 -55 0 -28 4 -33 24 -33 30 0 49 -22 53 -63 2 -31 -1 -34 -89 -86
l-91 -54 -43 49 c-39 45 -84 148 -70 161 14 14 162 101 173 102 6 1 19 -9 27
-21z m-4084 -175 c146 -42 266 -77 267 -78 1 0 -3 -73 -9 -160 l-10 -160 -75
-140 c-41 -77 -78 -144 -82 -148 -9 -9 -527 139 -548 156 -7 5 -13 30 -13 56
0 37 8 58 41 110 23 34 59 76 81 91 l39 29 -30 22 c-42 31 -64 90 -56 152 7
45 9 48 31 43 19 -5 24 -2 24 11 0 24 47 93 63 93 7 0 131 -34 277 -77z m979
-161 l122 -143 -65 -88 c-61 -82 -71 -91 -161 -139 -53 -29 -99 -52 -101 -52
-3 0 -17 14 -32 32 -15 18 -71 83 -124 146 l-98 114 18 30 c18 32 72 62 133
73 36 7 37 8 32 46 -4 30 0 47 18 74 25 36 34 42 44 25 3 -5 19 -1 38 10 18
11 37 19 43 18 6 -2 66 -67 133 -146z m3975 -168 c9 -24 7 -80 -4 -109 -9 -22
-7 -27 15 -35 32 -12 61 -56 47 -73 -6 -6 -12 -25 -14 -41 -3 -30 -3 -30 -137
-56 l-134 -27 -33 73 c-30 63 -34 83 -34 153 0 75 1 81 23 86 83 20 207 43
233 44 21 1 34 -5 38 -15z m-598 -190 c4 -14 4 -41 1 -60 -4 -25 -2 -34 8 -34
23 0 44 -42 38 -78 -4 -25 -11 -34 -32 -38 -47 -11 -146 -35 -163 -40 -28 -8
-68 92 -68 170 l0 62 83 21 c113 29 125 28 133 -3z m-3001 -144 l93 -50 -18
-60 c-17 -56 -84 -154 -100 -148 -5 2 -47 23 -94 48 -99 52 -108 71 -51 117
25 21 32 32 25 43 -16 26 -11 48 17 75 15 14 30 25 32 25 2 0 45 -23 96 -50z
m4805 -59 c22 -57 11 -123 -35 -208 l-34 -62 34 -11 c42 -14 81 -58 95 -108
14 -51 13 -62 -8 -62 -13 0 -20 -14 -29 -61 -6 -33 -13 -62 -15 -64 -6 -5
-162 -14 -365 -21 l-201 -7 -11 39 c-5 21 -23 91 -40 155 l-31 115 25 145 c14
79 28 152 31 162 4 14 19 17 87 18 45 1 150 5 232 9 83 4 172 6 199 6 48 -1
49 -2 66 -45z m-5486 -197 l45 -111 -7 -114 -7 -113 -180 -33 c-99 -17 -189
-32 -200 -32 -23 -1 -55 48 -55 83 0 21 18 89 35 128 5 12 -1 18 -24 23 -17 4
-40 18 -51 32 -26 33 -37 76 -22 81 7 2 12 20 12 40 0 21 4 42 8 48 5 8 387
84 399 80 1 -1 22 -51 47 -112z m1626 -117 c105 -55 109 -215 8 -277 -25 -15
-51 -20 -105 -20 l-73 0 0 -81 0 -80 -52 3 -53 3 -3 238 -2 237 118 0 c104 0
124 -3 162 -23z m240 -172 l0 -195 100 0 100 0 0 -45 0 -45 -150 0 -150 0 0
240 0 240 50 0 50 0 0 -195z m622 -35 c43 -124 78 -231 78 -237 0 -9 -18 -13
-54 -13 l-55 0 -17 55 -18 55 -81 0 -81 0 -18 -55 -17 -55 -55 0 c-29 0 -54 4
-54 9 0 8 131 396 155 459 3 9 24 12 72 10 l67 -3 78 -225z m223 135 c27 -52
52 -95 55 -95 3 0 28 43 55 95 l50 95 58 0 c31 0 57 -3 57 -6 0 -3 -38 -73
-85 -156 l-85 -149 0 -85 0 -84 -50 0 -50 0 0 82 0 82 -79 140 c-108 190 -105
176 -35 176 l59 0 50 -95z m1739 -23 l130 -17 8 -30 c8 -31 -18 -101 -46 -125
-11 -9 -8 -16 15 -40 27 -27 42 -90 21 -90 -5 0 -16 -16 -25 -35 -16 -33 -20
-35 -50 -31 -17 3 -86 13 -152 22 -66 8 -121 17 -124 19 -2 2 -7 42 -12 88 -9
85 -1 124 46 240 9 21 23 21 189 -1z m-5225 -379 c5 -21 19 -75 31 -120 l20
-83 -21 -117 c-12 -65 -25 -121 -28 -124 -3 -4 -101 -9 -218 -12 l-211 -6 -11
31 c-18 50 -13 92 19 154 16 32 28 59 27 60 -1 1 -17 9 -35 18 -47 24 -86 126
-49 126 8 0 17 19 23 48 l9 47 170 5 c94 3 191 7 217 8 47 2 47 2 57 -35z
m1539 -40 c25 -33 59 -129 49 -139 -1 -2 -37 -19 -79 -38 -85 -39 -98 -36 -98
26 0 30 -4 38 -18 38 -26 0 -42 20 -42 53 0 25 7 32 73 62 39 19 75 34 79 35
3 0 20 -17 36 -37z m-550 -151 l61 -118 3 -129 3 -129 -214 -60 -214 -60 -23
29 c-12 16 -25 42 -28 60 -6 29 5 110 19 147 5 13 -2 19 -33 27 -42 12 -61 29
-86 79 -14 27 -14 33 -3 38 10 4 13 18 9 53 -3 32 0 51 8 56 10 6 411 122 431
124 3 1 34 -52 67 -117z m3527 -12 c48 -48 48 -50 30 -70 -10 -11 -24 -20 -32
-20 -7 0 -13 -11 -13 -25 0 -18 -8 -28 -27 -36 -24 -9 -31 -6 -76 40 l-50 49
22 35 c18 30 73 76 91 77 3 0 28 -22 55 -50z m1554 -219 c83 -73 151 -138 151
-145 0 -22 -41 -77 -72 -96 -18 -12 -51 -26 -74 -32 l-41 -11 14 -37 c14 -35
13 -41 -6 -85 -15 -34 -25 -46 -36 -41 -9 3 -34 -6 -56 -21 l-40 -26 -27 25
c-15 13 -87 78 -160 142 l-132 118 32 57 c18 31 44 78 59 104 19 36 50 66 120
117 52 38 99 69 106 67 6 -1 79 -62 162 -136z m-891 -90 c86 -93 91 -101 81
-125 -11 -24 -71 -56 -104 -56 -11 0 -13 -8 -9 -30 6 -29 -20 -89 -33 -76 -3
3 -19 -2 -35 -10 l-30 -15 -81 87 c-117 125 -112 110 -61 181 33 46 63 73 112
103 37 22 67 40 67 40 0 0 42 -45 93 -99z m-3455 -292 l15 -39 -59 -41 c-66
-45 -86 -45 -95 0 -4 19 -14 31 -29 35 -15 4 -24 15 -28 33 -3 16 -5 29 -4 29
1 1 29 20 61 43 l60 41 32 -31 c17 -17 39 -48 47 -70z m2476 7 c65 -65 72 -76
62 -94 -6 -11 -27 -26 -46 -33 -27 -10 -35 -19 -35 -39 0 -26 -14 -55 -27 -55
-4 -1 -17 -6 -29 -12 -18 -11 -28 -4 -97 65 l-76 77 31 48 c26 40 117 117 138
117 3 0 38 -33 79 -74z m-3837 -249 l118 -112 59 -152 c43 -110 56 -155 47
-162 -6 -5 -114 -77 -239 -160 l-228 -152 -27 20 c-15 10 -34 27 -43 37 -25
29 -50 116 -52 183 l-1 61 -47 -6 c-53 -7 -93 9 -140 58 -25 27 -28 34 -16 46
13 12 12 18 -1 44 -8 17 -15 46 -16 64 -1 32 5 37 229 188 127 86 232 156 235
156 3 0 58 -51 122 -113z m3187 31 c25 -56 27 -64 13 -75 -9 -7 -26 -13 -38
-13 -14 0 -25 -8 -29 -20 -4 -14 -15 -20 -36 -20 -27 0 -33 6 -59 63 l-28 62
26 22 c27 23 71 40 104 42 13 1 27 -18 47 -61z m-1690 -255 c55 -39 76 -62
110 -120 24 -40 41 -77 39 -82 -6 -19 -210 -201 -224 -201 -25 0 -63 47 -76
94 -11 43 -13 44 -45 39 -35 -6 -85 18 -82 40 2 7 -4 25 -12 41 l-14 29 110
104 c60 56 113 103 118 103 5 0 39 -21 76 -47z m3720 -227 l234 -234 -27 -55
c-23 -45 -39 -61 -89 -90 -33 -20 -86 -41 -116 -48 -31 -6 -61 -13 -67 -14 -8
-2 -7 -21 4 -63 15 -54 14 -63 -1 -103 -10 -24 -29 -57 -42 -74 -23 -28 -24
-29 -44 -11 -18 16 -21 17 -27 3 -3 -8 -31 -27 -62 -42 l-56 -26 -234 234
-234 234 102 159 102 159 157 102 c86 56 158 102 161 102 3 1 110 -104 239
-233z m-2812 129 l52 -34 -37 -91 c-41 -100 -59 -112 -103 -66 -20 21 -31 24
-64 20 -34 -4 -43 -1 -57 20 -17 24 -17 27 19 111 l36 87 51 -6 c33 -5 69 -19
103 -41z m979 -91 l51 -6 23 -127 c12 -69 26 -143 30 -164 7 -34 5 -40 -17
-54 -29 -19 -90 -19 -138 1 -31 13 -32 13 -44 -19 -12 -36 -81 -79 -89 -56 -2
6 -18 11 -37 11 -18 0 -37 6 -42 13 -11 13 -67 326 -60 333 2 2 42 20 88 39
87 35 133 41 235 29z m-2379 -352 c55 -24 78 -44 182 -157 71 -76 117 -133
112 -140 -4 -5 -83 -119 -175 -252 -92 -134 -171 -245 -176 -248 -4 -2 -30 2
-58 10 -38 11 -61 27 -91 61 -43 49 -91 136 -91 165 0 16 -5 15 -42 -6 -53
-30 -116 -32 -175 -5 -44 20 -50 29 -33 46 7 7 -5 26 -35 57 -25 26 -45 54
-45 63 0 13 137 216 320 475 l32 47 107 -45 c58 -24 134 -56 168 -71z m1578
-391 c137 -53 181 -74 182 -88 2 -10 -21 -169 -50 -353 l-52 -335 -62 -11
c-58 -10 -66 -9 -131 18 -45 19 -92 49 -131 84 -33 31 -61 50 -61 42 0 -20
-58 -86 -89 -103 -16 -8 -57 -15 -92 -17 -63 -3 -64 -3 -67 25 -2 19 -9 27
-23 27 -20 0 -114 44 -122 57 -5 8 99 692 106 699 5 5 240 21 337 23 70 1 86
-3 255 -68z m1600 -33 c4 -4 125 -571 125 -585 0 -7 -18 -24 -40 -38 -32 -20
-52 -25 -107 -25 -67 0 -154 20 -179 40 -9 9 -16 -2 -28 -44 -18 -60 -48 -91
-119 -120 -37 -15 -39 -15 -44 3 -4 16 -17 20 -73 23 -38 2 -71 6 -74 8 -3 3
-32 131 -65 285 -34 154 -63 288 -65 297 -3 13 31 32 158 90 l161 73 174 -2
c96 -1 175 -4 176 -5z"/>
<path d="M4270 5074 l0 -77 50 5 c62 6 90 29 90 74 0 48 -32 74 -92 74 l-48 0
0 -76z"/>
<path d="M5132 5049 c-12 -41 -22 -77 -22 -81 0 -5 21 -8 46 -8 l46 0 -7 32
c-4 17 -15 54 -24 81 l-17 50 -22 -74z"/>
</g>
</svg>
